{
  "accessors": [
    {
      "bufferView": 2,
      "componentType": 5126,
      "count": 65534,
      "max": [
        0.5970025658607483,
        0.899197518825531,
        5.777712821960449
      ],
      "min": [
        -0.8439967036247253,
        -0.8809318542480469,
        -0.327915221452713
      ],
      "type": "VEC3"
    },
    {
      "bufferView": 2,
      "byteOffset": 786408,
      "componentType": 5126,
      "count": 65534,
      "max": [
        0.9999998211860657,
        0.9999998211860657,
        0.999998927116394
      ],
      "min": [
        -0.9999974370002747,
        -0.9999983906745911,
        -0.9999967813491821
      ],
      "type": "VEC3"
    },
    {
      "bufferView": 1,
      "componentType": 5126,
      "count": 65534,
      "max": [
        0.9995120167732239,
        0.9776800274848938
      ],
      "min": [
        0.00046099998871795833,
        0.012643575668334961
      ],
      "type": "VEC2"
    },
    {
      "bufferView": 0,
      "componentType": 5125,
      "count": 70101,
      "type": "SCALAR"
    },
    {
      "bufferView": 2,
      "byteOffset": 1572816,
      "componentType": 5126,
      "count": 65533,
      "max": [
        0.5870130062103271,
        0.899197518825531,
        5.780189514160156
      ],
      "min": [
        -0.8410281538963318,
        -0.8799148201942444,
        -0.327915221452713
      ],
      "type": "VEC3"
    },
    {
      "bufferView": 2,
      "byteOffset": 2359212,
      "componentType": 5126,
      "count": 65533,
      "max": [
        0.9999999403953552,
        0.9999998807907104,
        0.999998927116394
      ],
      "min": [
        -0.999998152256012,
        -0.9999998211860657,
        -0.9999967813491821
      ],
      "type": "VEC3"
    },
    {
      "bufferView": 1,
      "byteOffset": 524272,
      "componentType": 5126,
      "count": 65533,
      "max": [
        0.9995160102844238,
        0.9705320000648499
      ],
      "min": [
        0.00024399999529123306,
        0.012112021446228027
      ],
      "type": "VEC2"
    },
    {
      "bufferView": 0,
      "byteOffset": 280404,
      "componentType": 5125,
      "count": 68544,
      "type": "SCALAR"
    },
    {
      "bufferView": 2,
      "byteOffset": 3145608,
      "componentType": 5126,
      "count": 65532,
      "max": [
        0.585085928440094,
        0.8973978161811829,
        5.780189514160156
      ],
      "min": [
        -0.8433671593666077,
        -0.8798064589500427,
        0.12419454008340836
      ],
      "type": "VEC3"
    },
    {
      "bufferView": 2,
      "byteOffset": 3931992,
      "componentType": 5126,
      "count": 65532,
      "max": [
        0.9999999403953552,
        0.9999991655349731,
        0.9999992251396179
      ],
      "min": [
        -0.9999985694885254,
        -0.9999998211860657,
        -0.9999775886535645
      ],
      "type": "VEC3"
    },
    {
      "bufferView": 1,
      "byteOffset": 1048536,
      "componentType": 5126,
      "count": 65532,
      "max": [
        0.9995160102844238,
        0.9718520045280457
      ],
      "min": [
        0.00024399999529123306,
        0.0007560253143310547
      ],
      "type": "VEC2"
    },
    {
      "bufferView": 0,
      "byteOffset": 554580,
      "componentType": 5125,
      "count": 67995,
      "type": "SCALAR"
    },
    {
      "bufferView": 2,
      "byteOffset": 4718376,
      "componentType": 5126,
      "count": 65534,
      "max": [
        0.5820484757423401,
        0.8973978161811829,
        5.780189514160156
      ],
      "min": [
        -0.8538571000099182,
        -0.8786582350730896,
        0.18818312883377075
      ],
      "type": "VEC3"
    },
    {
      "bufferView": 2,
      "byteOffset": 5504784,
      "componentType": 5126,
      "count": 65534,
      "max": [
        0.9999998211860657,
        0.9999998211860657,
        0.9999992251396179
      ],
      "min": [
        -0.9999977350234985,
        -0.9999997615814209,
        -0.9999514222145081
      ],
      "type": "VEC3"
    },
    {
      "bufferView": 1,
      "byteOffset": 1572792,
      "componentType": 5126,
      "count": 65534,
      "max": [
        0.9995160102844238,
        0.9786779880523682
      ],
      "min": [
        0.0003260000084992498,
        0.00025403499603271484
      ],
      "type": "VEC2"
    },
    {
      "bufferView": 0,
      "byteOffset": 826560,
      "componentType": 5125,
      "count": 67713,
      "type": "SCALAR"
    },
    {
      "bufferView": 2,
      "byteOffset": 6291192,
      "componentType": 5126,
      "count": 65534,
      "max": [
        0.5970025658607483,
        0.8973978161811829,
        5.777712821960449
      ],
      "min": [
        -0.8715208768844604,
        -0.8773285746574402,
        -0.3255437910556793
      ],
      "type": "VEC3"
    },
    {
      "bufferView": 2,
      "byteOffset": 7077600,
      "componentType": 5126,
      "count": 65534,
      "max": [
        0.9999998211860657,
        0.9999998807907104,
        0.9999994039535522
      ],
      "min": [
        -0.9999974370002747,
        -0.9999998211860657,
        -0.9999967813491821
      ],
      "type": "VEC3"
    },
    {
      "bufferView": 1,
      "byteOffset": 2097064,
      "componentType": 5126,
      "count": 65534,
      "max": [
        0.9995465278625488,
        0.9728450179100037
      ],
      "min": [
        0.00024399999529123306,
        0.000532984733581543
      ],
      "type": "VEC2"
    },
    {
      "bufferView": 0,
      "byteOffset": 1097412,
      "componentType": 5125,
      "count": 67287,
      "type": "SCALAR"
    },
    {
      "bufferView": 2,
      "byteOffset": 7864008,
      "componentType": 5126,
      "count": 65532,
      "max": [
        0.5853987336158752,
        0.8956736922264099,
        5.780189514160156
      ],
      "min": [
        -0.8715208768844604,
        -0.878315269947052,
        -0.3122674822807312
      ],
      "type": "VEC3"
    },
    {
      "bufferView": 2,
      "byteOffset": 8650392,
      "componentType": 5126,
      "count": 65532,
      "max": [
        0.9999999403953552,
        0.9999998807907104,
        0.9999994039535522
      ],
      "min": [
        -0.9999985694885254,
        -0.9999997615814209,
        -0.9999967813491821
      ],
      "type": "VEC3"
    },
    {
      "bufferView": 1,
      "byteOffset": 2621336,
      "componentType": 5126,
      "count": 65532,
      "max": [
        0.9995080232620239,
        0.973809003829956
      ],
      "min": [
        0.00024399999529123306,
        0.00026297569274902344
      ],
      "type": "VEC2"
    },
    {
      "bufferView": 0,
      "byteOffset": 1366560,
      "componentType": 5125,
      "count": 66900,
      "type": "SCALAR"
    },
    {
      "bufferView": 2,
      "byteOffset": 9436776,
      "componentType": 5126,
      "count": 65533,
      "max": [
        0.5845764875411987,
        0.8973978161811829,
        5.7755327224731445
      ],
      "min": [
        -0.8553876280784607,
        -0.8809318542480469,
        -0.3255437910556793
      ],
      "type": "VEC3"
    },
    {
      "bufferView": 2,
      "byteOffset": 10223172,
      "componentType": 5126,
      "count": 65533,
      "max": [
        0.9999985098838806,
        0.9999998211860657,
        1.0
      ],
      "min": [
        -0.999998152256012,
        -0.9999997615814209,
        -0.999997079372406
      ],
      "type": "VEC3"
    },
    {
      "bufferView": 1,
      "byteOffset": 3145592,
      "componentType": 5126,
      "count": 65533,
      "max": [
        0.9994950294494629,
        0.9764900207519531
      ],
      "min": [
        0.00024399999529123306,
        0.0004240274429321289
      ],
      "type": "VEC2"
    },
    {
      "bufferView": 0,
      "byteOffset": 1634160,
      "componentType": 5125,
      "count": 66390,
      "type": "SCALAR"
    },
    {
      "bufferView": 2,
      "byteOffset": 11009568,
      "componentType": 5126,
      "count": 65534,
      "max": [
        0.5853987336158752,
        0.8973978161811829,
        5.7781853675842285
      ],
      "min": [
        -0.8433671593666077,
        -0.8799148201942444,
        -0.327915221452713
      ],
      "type": "VEC3"
    },
    {
      "bufferView": 2,
      "byteOffset": 11795976,
      "componentType": 5126,
      "count": 65534,
      "max": [
        0.9999999403953552,
        0.9999971389770508,
        1.0
      ],
      "min": [
        -0.999998152256012,
        -0.9999998211860657,
        -0.9999967813491821
      ],
      "type": "VEC3"
    },
    {
      "bufferView": 1,
      "byteOffset": 3669856,
      "componentType": 5126,
      "count": 65534,
      "max": [
        0.9996129870414734,
        0.9747250080108643
      ],
      "min": [
        0.00024399999529123306,
        0.00045108795166015625
      ],
      "type": "VEC2"
    },
    {
      "bufferView": 0,
      "byteOffset": 1899720,
      "componentType": 5125,
      "count": 66141,
      "type": "SCALAR"
    },
    {
      "bufferView": 2,
      "byteOffset": 12582384,
      "componentType": 5126,
      "count": 25244,
      "max": [
        0.58126300573349,
        0.8934728503227234,
        5.774121284484863
      ],
      "min": [
        -0.8403100967407227,
        -0.878315269947052,
        -0.31483930349349976
      ],
      "type": "VEC3"
    },
    {
      "bufferView": 2,
      "byteOffset": 12885312,
      "componentType": 5126,
      "count": 25244,
      "max": [
        0.9999999403953552,
        0.9999991655349731,
        1.0
      ],
      "min": [
        -0.9999960064888,
        -0.9999986290931702,
        -0.9999514222145081
      ],
      "type": "VEC3"
    },
    {
      "bufferView": 1,
      "byteOffset": 4194128,
      "componentType": 5126,
      "count": 25244,
      "max": [
        0.9993529915809631,
        0.967926025390625
      ],
      "min": [
        0.00024399999529123306,
        0.012716054916381836
      ],
      "type": "VEC2"
    },
    {
      "bufferView": 0,
      "byteOffset": 2164284,
      "componentType": 5125,
      "count": 25341,
      "type": "SCALAR"
    }
  ],
  "asset": {
    "extras": {
      "author": "ivanfrattina (https://sketchfab.com/ivanfrattina)",
      "license": "CC-BY-4.0 (http://creativecommons.org/licenses/by/4.0/)",
      "source": "https://sketchfab.com/3d-models/drone-photogrammetry-of-an-italian-clock-tower-413329fe25b14706bcfbd13f0b0fd13a",
      "title": "Drone photogrammetry of an italian clock tower"
    },
    "generator": "Sketchfab-10.99.0",
    "version": "2.0"
  },
  "bufferViews": [
    {
      "buffer": 0,
      "byteLength": 2265648,
      "name": "floatBufferViews",
      "target": 34963
    },
    {
      "buffer": 0,
      "byteLength": 4396080,
      "byteOffset": 2265648,
      "byteStride": 8,
      "name": "floatBufferViews",
      "target": 34962
    },
    {
      "buffer": 0,
      "byteLength": 13188240,
      "byteOffset": 6661728,
      "byteStride": 12,
      "name": "floatBufferViews",
      "target": 34962
    }
  ],
  "buffers": [
    {
      "byteLength": 19849968,
      "uri": "scene.bin"
    }
  ],
  "extensionsRequired": [
    "KHR_materials_pbrSpecularGlossiness"
  ],
  "extensionsUsed": [
    "KHR_materials_pbrSpecularGlossiness"
  ],
  "images": [
    {
      "uri": "textures/RILIEVO_CAMPANILE_MODEL_OBJ_u1_v1_diffuse.jpeg"
    }
  ],
  "materials": [
    {
      "doubleSided": true,
      "extensions": {
        "KHR_materials_pbrSpecularGlossiness": {
          "diffuseFactor": [
            1.0,
            1.0,
            1.0,
            1.0
          ],
          "diffuseTexture": {
            "index": 0
          },
          "glossinessFactor": 1.0,
          "specularFactor": [
            0.0,
            0.0,
            0.0
          ]
        }
      },
      "name": "RILIEVO_CAMPANILE_MODEL_OBJ_u1_v1"
    }
  ],
  "meshes": [
    {
      "name": "Object_0",
      "primitives": [
        {
          "attributes": {
            "NORMAL": 1,
            "POSITION": 0,
            "TEXCOORD_0": 2
          },
          "indices": 3,
          "material": 0,
          "mode": 4
        }
      ]
    },
    {
      "name": "Object_1",
      "primitives": [
        {
          "attributes": {
            "NORMAL": 5,
            "POSITION": 4,
            "TEXCOORD_0": 6
          },
          "indices": 7,
          "material": 0,
          "mode": 4
        }
      ]
    },
    {
      "name": "Object_2",
      "primitives": [
        {
          "attributes": {
            "NORMAL": 9,
            "POSITION": 8,
            "TEXCOORD_0": 10
          },
          "indices": 11,
          "material": 0,
          "mode": 4
        }
      ]
    },
    {
      "name": "Object_3",
      "primitives": [
        {
          "attributes": {
            "NORMAL": 13,
            "POSITION": 12,
            "TEXCOORD_0": 14
          },
          "indices": 15,
          "material": 0,
          "mode": 4
        }
      ]
    },
    {
      "name": "Object_4",
      "primitives": [
        {
          "attributes": {
            "NORMAL": 17,
            "POSITION": 16,
            "TEXCOORD_0": 18
          },
          "indices": 19,
          "material": 0,
          "mode": 4
        }
      ]
    },
    {
      "name": "Object_5",
      "primitives": [
        {
          "attributes": {
            "NORMAL": 21,
            "POSITION": 20,
            "TEXCOORD_0": 22
          },
          "indices": 23,
          "material": 0,
          "mode": 4
        }
      ]
    },
    {
      "name": "Object_6",
      "primitives": [
        {
          "attributes": {
            "NORMAL": 25,
            "POSITION": 24,
            "TEXCOORD_0": 26
          },
          "indices": 27,
          "material": 0,
          "mode": 4
        }
      ]
    },
    {
      "name": "Object_7",
      "primitives": [
        {
          "attributes": {
            "NORMAL": 29,
            "POSITION": 28,
            "TEXCOORD_0": 30
          },
          "indices": 31,
          "material": 0,
          "mode": 4
        }
      ]
    },
    {
      "name": "Object_8",
      "primitives": [
        {
          "attributes": {
            "NORMAL": 33,
            "POSITION": 32,
            "TEXCOORD_0": 34
          },
          "indices": 35,
          "material": 0,
          "mode": 4
        }
      ]
    }
  ],
  "nodes": [
    {
      "children": [
        1
      ],
      "matrix": [
        2.379451274871826,
        -3.8264494253469937e-16,
        -8.496424509167863e-32,
        0.0,
        0.0,
        5.283443182672767e-16,
        -2.379451274871826,
        0.0,
        3.8264494253469937e-16,
        2.379451274871826,
        5.283443182672767e-16,
        0.0,
        -8.881784197001252e-16,
        0.0,
        0.0,
        1.0
      ],
      "name": "Sketchfab_model"
    },
    {
      "children": [
        2,
        3,
        4,
        5,
        6,
        7,
        8,
        9,
        10
      ],
      "name": "RILIEVO_CAMPANILE_MODEL_OBJ_REDUCTION_18.obj.cleaner.materialmerger.gles"
    },
    {
      "mesh": 0,
      "name": "Object_2"
    },
    {
      "mesh": 1,
      "name": "Object_3"
    },
    {
      "mesh": 2,
      "name": "Object_4"
    },
    {
      "mesh": 3,
      "name": "Object_5"
    },
    {
      "mesh": 4,
      "name": "Object_6"
    },
    {
      "mesh": 5,
      "name": "Object_7"
    },
    {
      "mesh": 6,
      "name": "Object_8"
    },
    {
      "mesh": 7,
      "name": "Object_9"
    },
    {
      "mesh": 8,
      "name": "Object_10"
    }
  ],
  "samplers": [
    {
      "magFilter": 9729,
      "minFilter": 9987,
      "wrapS": 10497,
      "wrapT": 10497
    }
  ],
  "scene": 0,
  "scenes": [
    {
      "name": "Sketchfab_Scene",
      "nodes": [
        0
      ]
    }
  ],
  "textures": [
    {
      "sampler": 0,
      "source": 0
    }
  ]
}
