{
  "accessors": [
    {
      "bufferView": 2,
      "componentType": 5126,
      "count": 43097,
      "max": [
        0.1025288999080658,
        0.16448189318180084,
        0.29135820269584656
      ],
      "min": [
        -0.21845169365406036,
        -0.26438230276107788,
        -0.24998649954795837
      ],
      "type": "VEC3"
    },
    {
      "bufferView": 2,
      "byteOffset": 517164,
      "componentType": 5126,
      "count": 43097,
      "max": [
        0.99992269277572632,
        0.99996811151504517,
        0.99993020296096802
      ],
      "min": [
        -0.99999570846557617,
        -0.9999840259552002,
        -0.99993830919265747
      ],
      "type": "VEC3"
    },
    {
      "bufferView": 3,
      "componentType": 5126,
      "count": 43097,
      "max": [
        0.99985665082931519,
        0.99995088577270508,
        0.9999319314956665,
        1
      ],
      "min": [
        -0.99993401765823364,
        -0.99995088577270508,
        -0.99956053495407104,
        -1
      ],
      "type": "VEC4"
    },
    {
      "bufferView": 1,
      "componentType": 5126,
      "count": 43097,
      "max": [
        0.89697271585464478,
        0.99853521585464478
      ],
      "min": [
        0.001464843051508069,
        0.14990229904651642
      ],
      "type": "VEC2"
    },
    {
      "bufferView": 0,
      "componentType": 5125,
      "count": 152004,
      "max": [
        43096
      ],
      "min": [
        0
      ],
      "type": "SCALAR"
    }
  ],
  "asset": {
    "extras": {
      "author": "Innovation Studio (https://sketchfab.com/cmp_innovation_studio)",
      "license": "CC-BY-4.0 (http://creativecommons.org/licenses/by/4.0/)",
      "source": "https://sketchfab.com/models/e08e8ccef02f4c99948c8f4a3132c8fa",
      "title": "Black Vulture"
    },
    "generator": "Sketchfab-3.18.5",
    "version": "2.0"
  },
  "bufferViews": [
    {
      "buffer": 0,
      "byteLength": 608016,
      "byteOffset": 0,
      "name": "floatBufferViews",
      "target": 34963
    },
    {
      "buffer": 0,
      "byteLength": 344776,
      "byteOffset": 608016,
      "byteStride": 8,
      "name": "floatBufferViews",
      "target": 34962
    },
    {
      "buffer": 0,
      "byteLength": 1034328,
      "byteOffset": 952792,
      "byteStride": 12,
      "name": "floatBufferViews",
      "target": 34962
    },
    {
      "buffer": 0,
      "byteLength": 689552,
      "byteOffset": 1987120,
      "byteStride": 16,
      "name": "floatBufferViews",
      "target": 34962
    }
  ],
  "buffers": [
    {
      "byteLength": 2676672,
      "uri": "scene.bin"
    }
  ],
  "images": [
    {
      "uri": "textures/material_0_baseColor.jpeg"
    }
  ],
  "materials": [
    {
      "doubleSided": true,
      "emissiveFactor": [
        0,
        0,
        0
      ],
      "name": "material_0",
      "pbrMetallicRoughness": {
        "baseColorFactor": [
          1,
          1,
          1,
          1
        ],
        "baseColorTexture": {
          "index": 0,
          "texCoord": 0
        },
        "metallicFactor": 0,
        "roughnessFactor": 0.59999999999999998
      }
    }
  ],
  "meshes": [
    {
      "name": "material_0-material",
      "primitives": [
        {
          "attributes": {
            "NORMAL": 1,
            "POSITION": 0,
            "TANGENT": 2,
            "TEXCOORD_0": 3
          },
          "indices": 4,
          "material": 0,
          "mode": 4
        }
      ]
    }
  ],
  "nodes": [
    {
      "children": [
        1
      ],
      "name": "RootNode (gltf orientation matrix)",
      "rotation": [
        -0.70710678118654746,
        -0,
        -0,
        0.70710678118654757
      ]
    },
    {
      "children": [
        2
      ],
      "name": "RootNode (model correction matrix)"
    },
    {
      "children": [
        3
      ],
      "name": "Collada visual scene group"
    },
    {
      "children": [
        4
      ],
      "matrix": [
        0.90703049999999996,
        0.41983599999999999,
        -0.032146849999999998,
        0,
        -0.1527424,
        0.3992135,
        0.90404549999999995,
        0,
        0.39238440000000002,
        -0.81508670000000005,
        0.42622559999999998,
        0,
        0,
        0,
        -0.001664832,
        1
      ],
      "name": "model_mesh"
    },
    {
      "mesh": 0,
      "name": "material_0-material"
    }
  ],
  "samplers": [
    {
      "magFilter": 9729,
      "minFilter": 9987,
      "wrapS": 10497,
      "wrapT": 10497
    }
  ],
  "scene": 0,
  "scenes": [
    {
      "name": "OSG_Scene",
      "nodes": [
        0
      ]
    }
  ],
  "textures": [
    {
      "sampler": 0,
      "source": 0
    }
  ]
}

